<?xml version="1.0" encoding="UTF-8"?>
<!DOCTYPE svg PUBLIC "-//W3C//DTD SVG 1.1//EN" "http://www.w3.org/Graphics/SVG/1.1/DTD/svg11.dtd">
<!-- Creator: CorelDRAW -->
<svg xmlns="http://www.w3.org/2000/svg" xml:space="preserve" width="1.47966in" height="0.470524in" version="1.1" style="shape-rendering:geometricPrecision; text-rendering:geometricPrecision; image-rendering:optimizeQuality; fill-rule:evenodd; clip-rule:evenodd"
viewBox="0 0 550.02 174.9"
 xmlns:xlink="http://www.w3.org/1999/xlink"
 xmlns:xodm="http://www.corel.com/coreldraw/odm/2003">
 <defs>
  <style type="text/css">
   <![CDATA[
    .fil0 {fill:currentColor}
    .fil1 {fill:currentColor;fill-rule:nonzero}
   ]]>
  </style>
 </defs>
 <g id="Layer_x0020_1">
  <metadata id="CorelCorpID_0Corel-Layer"/>
  <g id="_2124373960032">
   <g>
    <path class="fil0" d="M-0 114.71l6.73 -9 42.2 -93.7c0,0 1.63,-8.09 -0,-10.05 -1.63,-1.95 -2.55,-1.95 -2.55,-1.95l22.38 0 44.21 97.87c0,0 4.62,7.85 7.17,10.89 2.55,3.04 5.49,5.87 5.49,5.87l-29.95 0.13c0,0 3.34,-3.94 1.6,-7.53 -1.74,-3.58 -14.88,-31.42 -14.88,-31.42l-41.93 -0.27c0,0 -6.79,0.05 -8.74,3.53 -1.96,3.48 -10.38,25.31 -10.38,25.31 0,0 -1.3,4.78 -0.76,6.68 0.54,1.9 3.15,3.65 3.15,3.65l-23.73 -0.02 -0.01 -0zm37.71 -50.32l19.01 -43.99 20.64 44.54 -39.65 -0.54z"/>
    <path class="fil0" d="M221.48 15.26l2.39 -15.26 111.34 0 2.61 15.21c0,0 -21.95,-4.45 -33.79,-4.67 -11.84,-0.22 -14.45,-0.11 -14.45,-0.11l0.27 79.52c0,0 0.22,13.74 0.82,17.22 0.6,3.48 2.88,7.55 2.88,7.55l-26.94 -0c0,0 3.04,-7.11 2.61,-16.19 -0.44,-9.07 -0.24,-87.56 -0.24,-87.56 0,0 -29.27,-1.16 -47.49,4.29l-0 -0z"/>
    <path class="fil0" d="M141.5 0l25.75 0c0,0 -1.9,4.7 -2.01,7.52 -0.1,2.6 -0.16,84.19 -0.17,97.09 13.81,-0.21 58.13,-0.94 61.1,-1.67 3.53,-0.87 14.01,-3.2 14.01,-3.2l-3.69 14.99 -68.11 0 0 0 -14.39 0 -12.5 0c0,0 3.37,-5.19 3.15,-10.14 -0.22,-4.94 -0.16,-98.45 -0.16,-98.45 0,0 -0.54,-4.1 -2.99,-6.13l-0 -0z"/>
    <path class="fil0" d="M323.94 114.71l6.74 -9 42.2 -93.7c0,0 1.62,-8.09 -0,-10.05 -1.63,-1.95 -2.55,-1.95 -2.55,-1.95l22.37 0 44.21 97.87c0,0 4.62,7.85 7.17,10.89 2.55,3.04 5.49,5.87 5.49,5.87l-29.95 0.13c0,0 3.34,-3.94 1.6,-7.53 -1.74,-3.58 -14.88,-31.42 -14.88,-31.42l-41.93 -0.27c0,0 -6.79,0.05 -8.74,3.53 -1.96,3.48 -10.38,25.31 -10.38,25.31 0,0 -1.3,4.78 -0.76,6.68 0.54,1.9 3.15,3.65 3.15,3.65l-23.73 -0.02 0 -0zm37.71 -50.32l19.01 -43.99 20.64 44.54 -39.65 -0.54z"/>
    <path class="fil0" d="M465.02 0l82.39 0 2.61 15.21c0,0 -21.94,-4.45 -33.79,-4.67 -11.84,-0.22 -28.57,-0.11 -28.57,-0.11l0.14 41.22c7.25,0 54.15,1.27 56.84,-2.09l0.33 14.33c-2.54,-2.68 -40.25,-0.83 -46.54,-0.83 -10.41,0 -10.57,2.32 -10.57,9.16l0.07 17.72c0,0 0.22,13.74 0.82,17.22 0.6,3.48 2.88,7.55 2.88,7.55l-26.94 -0c0,0 3.04,-7.11 2.61,-16.19 -0.3,-6.26 -0.3,-45.58 -0.27,-69.35l0 0 0 -0.53c0.01,-10.39 0.03,-17.68 0.03,-17.68l-0.03 0 0 -4.13c0,-1.02 -0.66,-6.07 -2,-6.84l-0 -0z"/>
   </g>
   <path class="fil1" d="M76.12 150.32l0 24.26 7.68 0c2.49,0 5.83,0 8.79,-1.82 1.49,-0.92 5.83,-4.16 5.83,-10.32 0,-4.16 -1.96,-7.58 -4.66,-9.64 -3.24,-2.49 -7.19,-2.49 -9.46,-2.49l-8.18 0 0 0zm7.83 3.1c2.21,0 3.84,0 5.83,0.89 3.7,1.64 5.05,5.02 5.05,7.97 0,3.31 -1.6,6.26 -4.05,7.79 -2.06,1.25 -4.91,1.39 -6.72,1.39l-4.48 0 0 -18.04 4.38 0 -0 0z"/>
   <polygon id="_1" class="fil1" points="129.4,150.32 115.64,150.32 115.64,174.58 129.72,174.58 129.72,171.45 119.12,171.45 119.12,163.91 129.05,163.91 129.05,160.82 119.12,160.82 119.12,153.42 129.4,153.42 "/>
   <polygon id="_2" class="fil1" points="165.86,150.32 162.41,150.32 155.15,167.36 147.86,150.32 144.37,150.32 154.83,174.72 155.61,174.72 "/>
   <polygon id="_3" class="fil1" points="195.17,150.32 181.4,150.32 181.4,174.58 195.49,174.58 195.49,171.45 184.89,171.45 184.89,163.91 194.81,163.91 194.81,160.82 184.89,160.82 184.89,153.42 195.17,153.42 "/>
   <polygon id="_4" class="fil1" points="216.29,150.32 212.77,150.32 212.77,174.58 227.21,174.58 227.21,171.42 216.29,171.42 "/>
   <path id="_5" class="fil1" d="M253.07 150c-8.29,0 -12.99,6.08 -12.99,12.52 0,6.76 5.19,12.38 12.81,12.38 7.93,0 13.27,-5.51 13.27,-12.49 0,-6.51 -5.02,-12.41 -13.09,-12.41l0 0zm0.14 3.27c6.33,0 9.39,5.09 9.39,9.11 0,2.1 -0.89,4.73 -2.42,6.4 -1.67,1.82 -4.48,2.88 -7.08,2.88 -5.09,0 -9.43,-3.63 -9.43,-9.14 0,-4.05 2.74,-9.25 9.53,-9.25l0 0z"/>
   <path id="_6" class="fil1" d="M283.12 150.32l0 24.26 3.48 0 0 -10.53 2.56 0c3.77,0 5.69,-0.5 7.22,-1.96 1.81,-1.74 2.03,-3.7 2.03,-4.91 0,-2.21 -0.82,-3.73 -1.88,-4.8 -2.03,-2.06 -4.27,-2.06 -7.15,-2.06l-6.26 0 0 -0zm6.12 3.06c2.49,0 3.45,0 4.52,1.03 0.85,0.78 1.07,1.85 1.07,2.7 0,1.53 -0.64,2.63 -1.6,3.2 -1.03,0.64 -2.45,0.64 -3.84,0.64l-2.77 0 0 -7.58 2.63 0 -0 0z"/>
   <polygon id="_7" class="fil1" points="336.87,150.32 333.63,150.32 325.59,160.28 317.52,150.32 314.24,150.32 314.24,174.58 317.73,174.58 317.73,155.69 325.27,165.08 325.91,165.08 333.38,155.69 333.38,174.58 336.87,174.58 "/>
   <polygon id="_8" class="fil1" points="368.74,150.32 354.97,150.32 354.97,174.58 369.06,174.58 369.06,171.45 358.46,171.45 358.46,163.91 368.38,163.91 368.38,160.82 358.46,160.82 358.46,153.42 368.74,153.42 "/>
   <polygon id="_9" class="fil1" points="408.96,150.32 405.66,150.32 405.66,169.14 389.29,150.32 386.48,150.32 386.48,174.58 389.76,174.58 389.76,155.91 405.98,174.58 408.96,174.58 "/>
   <polygon id="_10" class="fil1" points="445.24,150.32 424.97,150.32 424.97,153.38 433.29,153.38 433.29,174.58 436.78,174.58 436.78,153.38 445.24,153.38 "/>
   <path id="_11" class="fil1" d="M472.92 151.71c-1.67,-1.1 -3.59,-1.71 -5.58,-1.71 -4.38,0 -7.15,2.77 -7.15,6.44 0,1.53 0.46,2.67 1.21,3.63 1.07,1.35 2.17,2.03 6.01,4.34 1.14,0.68 3.2,2.17 3.2,4.2 0,2.06 -1.96,3.2 -3.77,3.2 -3.66,0 -5.83,-2.67 -6.55,-3.56l0 4.41c1.89,1.42 4.16,2.24 6.55,2.24 4.3,0 7.04,-2.81 7.04,-6.62 0,-1.74 -0.57,-3.06 -1.32,-4.02 -0.93,-1.25 -2.1,-2.1 -3.13,-2.7 -4.63,-2.7 -6.05,-3.56 -6.05,-5.62 0,-1.53 1.46,-2.81 3.84,-2.81 1.64,0 3.63,0.53 5.69,2.53l0 -3.95 -0 0z"/>
  </g>
 </g>
</svg>