<svg xmlns="http://www.w3.org/2000/svg" viewBox="23.636 120 318.182 100" width="318.182" height="100"><path d="m28.6 177.273 3.195-4.269 20.013-44.435s.769-3.836 0-4.765c-.776-.929-1.209-.929-1.209-.929H61.21l20.971 46.42s2.187 3.725 3.402 5.167a42 42 0 0 0 2.602 2.785l-14.202.067s1.582-1.869.758-3.567-7.062-14.898-7.062-14.898l-19.889-.129s-3.22.024-4.147 1.675-4.924 12.004-4.924 12.004-.616 2.265-.36 3.171 1.496 1.735 1.496 1.735H28.6v-.013Zm17.885-23.867 18.802.256-9.785-21.124zm87.155-23.297 1.136-7.238h52.809l1.235 7.215s-10.409-2.113-16.024-2.218-6.855-.049-6.855-.049l.129 37.715s.104 6.518.385 8.167 1.362 3.58 1.362 3.58h-12.78s1.442-3.378 1.235-7.678-.116-41.527-.116-41.527-13.885-.549-22.522 2.035Zm-37.929-7.24h12.211s-.898 2.229-.953 3.567c-.049 1.235-.073 39.925-.08 46.047 6.549-.098 27.569-.445 28.98-.795 1.675-.409 6.645-1.522 6.645-1.522l-1.753 7.111h-45.05s1.595-2.462 1.496-4.807c-.104-2.345-.08-46.689-.08-46.689s-.256-1.942-1.416-2.907Zm86.522 54.404 3.195-4.269 20.013-44.435s.769-3.836 0-4.765c-.776-.929-1.209-.929-1.209-.929h10.611l20.971 46.42s2.187 3.725 3.396 5.167 2.602 2.785 2.602 2.785l-14.202.067s1.582-1.869.758-3.567-7.062-14.898-7.062-14.898l-19.889-.129s-3.22.024-4.147 1.675-4.924 12.004-4.924 12.004-.616 2.265-.36 3.171 1.496 1.735 1.496 1.735h-11.253v-.013Zm17.885-23.867 18.802.256-9.785-21.124zm49.024-30.536h39.076l1.235 7.215s-10.409-2.113-16.024-2.218-13.549-.049-13.549-.049l.067 19.547c3.44 0 25.68.598 26.958-.989l.153 6.798c-1.204-1.271-19.089-.391-22.071-.391-4.936 0-5.015 1.1-5.015 4.344l.036 8.405s.104 6.518.385 8.167 1.362 3.58 1.362 3.58h-12.78s1.442-3.378 1.235-7.678c-.14-2.969-.14-21.618-.129-32.889v-.251c0-4.924.013-8.387.013-8.387h-.013v-1.955c0-.482-.311-2.884-.947-3.244ZM64.696 194.164v11.509h3.64c1.178 0 2.767 0 4.165-.862.709-.44 2.767-1.973 2.767-4.893a5.69 5.69 0 0 0-2.211-4.569c-1.533-1.178-3.409-1.178-4.489-1.178h-3.877Zm3.715 1.465c1.045 0 1.82 0 2.767.422 1.753.776 2.395 2.376 2.395 3.782 0 1.569-.758 2.969-1.924 3.696-.978.593-2.327.66-3.189.66h-2.125v-8.553h2.076Zm21.558-1.465h-6.531v11.509h6.684v-1.485h-5.027v-3.578h4.704v-1.467h-4.704v-3.513h4.875zm17.293 0h-1.636l-3.445 8.082-3.458-8.082h-1.655l4.96 11.576h.373zm13.898 0h-6.531v11.509h6.684v-1.485h-5.029v-3.578h4.704v-1.467h-4.704v-3.513h4.876zm10.018 0h-1.669v11.509h6.849v-1.504h-5.18zm17.44-.153c-3.935 0-6.158 2.884-6.158 5.938 0 3.207 2.462 5.871 6.073 5.871s6.293-2.615 6.293-5.92c0-3.085-2.376-5.889-6.207-5.889m.067 1.551c3.005 0 4.453 2.413 4.453 4.318 0 .996-.422 2.242-1.149 3.036-.795.862-2.125 1.369-3.36 1.369-2.413 0-4.471-1.722-4.471-4.336 0-1.924 1.302-4.385 4.52-4.385Zm14.189-1.398v11.509h1.655v-4.991h1.216c1.789 0 2.7-.238 3.427-.929.862-.825.958-1.753.958-2.327 0-1.045-.391-1.771-.893-2.278-.958-.978-2.027-.978-3.391-.978h-2.969Zm2.902 1.455c1.178 0 1.636 0 2.144.489.404.373.507.88.507 1.284 0 .727-.305 1.245-.758 1.522-.489.305-1.167.305-1.82.305h-1.313v-3.593h1.245Zm22.584-1.455h-1.533l-3.811 4.722-3.831-4.722h-1.551v11.509h1.655v-8.962l3.575 4.453h.305l3.542-4.453v8.962h1.649zm15.12 0h-6.531v11.509h6.684v-1.485h-5.035v-3.578h4.711v-1.467h-4.711v-3.513h4.882zm19.076 0h-1.569v8.925l-7.764-8.925h-1.333v11.509h1.551v-8.858l7.698 8.858h1.416zm17.202 0h-9.615v1.455h3.953v10.055h1.649v-10.055h4.013zm13.127.66a4.8 4.8 0 0 0-2.651-.813c-2.076 0-3.391 1.313-3.391 3.055 0 .727.22 1.264.575 1.722.507.642 1.025.958 2.853 2.058.538.324 1.522 1.033 1.522 1.991s-.929 1.522-1.789 1.522c-1.735 0-2.767-1.264-3.104-1.685v2.089a5.16 5.16 0 0 0 3.104 1.064c2.04 0 3.342-1.331 3.342-3.14 0-.825-.269-1.455-.624-1.905a4.9 4.9 0 0 0-1.484-1.284c-2.193-1.284-2.865-1.685-2.865-2.664 0-.727.691-1.331 1.82-1.331.776 0 1.722.251 2.7 1.198v-1.875Z" fill="#8c2e47" fill-rule="evenodd"/></svg>