<svg viewBox="0 0 600 400" xmlns="http://www.w3.org/2000/svg">
  {/* Main ALTAF text */}
  <g fill="currentColor">
    {/* Letter A (first) */}
    <path d="M47 190l5-7 33-73s1-6 0-8c-1-1-2-1-2-1h17l34 76s4 6 6 8c2 2 4 5 4 5l-23 0s3-3 1-6c-1-3-12-24-12-24l-33 0s-5 0-7 3c-1 3-8 20-8 20s-1 4-1 5c0 1 2 3 2 3h-18v0zm29-39l31 0-16-35-15 35z"/>
    
    {/* Letter L */}
    <path d="M157 101h20s-1 4-2 6c0 2 0 65 0 75c11 0 45-1 47-1c3-1 11-2 11-2l-3 12h-74s3-4 2-8c0-4 0-76 0-76s0-3-2-5h1z"/>
    
    {/* Letter T */}
    <path d="M219 113l2-12h86l2 12s-17-3-26-4s-11 0-11 0l0 62s0 11 1 13c0 3 2 6 2 6h-21s2-6 2-13c0-7 0-68 0-68s-23-1-37 3z"/>
    
    {/* Letter A (second) */}
    <path d="M298 190l5-7 33-73s1-6 0-8c-1-1-2-1-2-1h17l34 76s4 6 6 8c2 2 4 5 4 5l-23 0s3-3 1-6c-1-3-12-24-12-24l-33 0s-5 0-7 3c-1 3-8 20-8 20s-1 4-1 5c0 1 2 3 2 3h-18v0zm29-39l31 0-16-35-15 35z"/>
    
    {/* Letter F */}
    <path d="M408 101h64l2 12s-17-3-26-4c-9 0-22 0-22 0l0 32c6 0 42 1 44-2l0 11c-2-2-31-1-36-1c-8 0-8 2-8 7l0 14s0 11 1 13c0 3 2 6 2 6h-21s2-6 2-13c0-5 0-35 0-54v0c0-8 0-14 0-14v-3c0-1-1-5-2-5z"/>
  </g>
  
  {/* DEVELOPMENTS text */}
  <g fill="currentColor">
    <path d="M106 218v19h6c2 0 5 0 7-1c1-1 5-3 5-8c0-3-2-6-4-7c-2-2-6-2-7-2h-6zm6 2c2 0 3 0 5 1c3 1 4 4 4 6c0 3-1 5-3 6c-2 1-4 1-5 1h-3v-14h2z"/>
    <polygon points="147 218 137 218 137 237 148 237 148 234 139 234 139 228 147 228 147 226 139 226 139 220 147 220 147 218"/>
    <polygon points="176 218 173 218 167 231 162 218 159 218 167 237 168 237 176 218"/>
    <polygon points="198 218 188 218 188 237 199 237 199 234 190 234 190 228 198 228 198 226 190 226 190 220 198 220 198 218"/>
    <polygon points="215 218 212 218 212 237 223 237 223 234 215 234 215 218"/>
    <path d="M243 218c-6 0-10 5-10 10c0 5 4 10 10 10s10-4 10-10c0-5-4-10-10-10zm0 3c5 0 7 4 7 7c0 2-1 4-2 5c-1 1-3 2-6 2c-4 0-7-3-7-7c0-3 2-7 7-7z"/>
    <path d="M267 218v19h3v-8h2c3 0 4 0 6-2c1-1 2-3 2-4c0-2-1-3-1-4c-2-2-3-2-6-2h-5zm5 2c2 0 3 0 4 1c1 1 1 1 1 2c0 1-1 2-1 2c-1 1-2 1-3 1h-2v-6h2z"/>
    <polygon points="308 218 306 218 300 226 293 218 291 218 291 237 294 237 294 222 299 229 300 229 306 222 306 237 308 237 308 218"/>
    <polygon points="333 218 322 218 322 237 333 237 333 234 325 234 325 228 333 228 333 226 325 226 325 220 333 220 333 218"/>
    <polygon points="364 218 362 218 362 232 349 218 347 218 347 237 349 237 349 222 362 237 364 237 364 218"/>
    <polygon points="392 218 377 218 377 220 383 220 383 237 386 237 386 220 392 220 392 218"/>
    <path d="M414 219c-1-1-3-1-4-1c-3 0-6 2-6 5c0 1 0 2 1 3c1 1 2 2 5 3c1 1 2 2 2 3s-2 2-3 2c-3 0-5-2-5-3v3c1 1 3 2 5 2c3 0 5-2 5-5c0-1 0-2-1-3c-1-1-2-2-2-2c-4-2-5-3-5-4c0-1 1-2 3-2c1 0 3 0 4 2v-3z"/>
  </g>
</svg>