<?xml version="1.0" encoding="UTF-8"?>
<svg id="Layer_1" xmlns="http://www.w3.org/2000/svg" viewBox="0 0 595.28 595.28">
  <path d="m46.82,290.2l5.23-6.99,32.76-72.74s1.26-6.28,0-7.8c-1.27-1.52-1.98-1.52-1.98-1.52h17.37l34.33,75.99s3.58,6.1,5.57,8.46c1.98,2.36,4.26,4.56,4.26,4.56l-23.25.11s2.59-3.06,1.24-5.84c-1.35-2.78-11.56-24.39-11.56-24.39l-32.56-.21s-5.27.04-6.79,2.74c-1.52,2.7-8.06,19.65-8.06,19.65,0,0-1.01,3.71-.59,5.19.42,1.48,2.45,2.84,2.45,2.84h-18.42s0-.02,0-.02h0Zm29.28-39.07l30.78.42-16.02-34.58-14.76,34.16Z" fill="#8c2e47" fill-rule="evenodd"/>
  <path d="m218.77,212.99l1.86-11.85h86.45l2.02,11.81s-17.04-3.46-26.23-3.63-11.22-.08-11.22-.08l.21,61.74s.17,10.67.63,13.37c.46,2.7,2.23,5.86,2.23,5.86h-20.92s2.36-5.53,2.02-12.57c-.34-7.04-.19-67.98-.19-67.98,0,0-22.73-.9-36.87,3.33h0Z" fill="#8c2e47" fill-rule="evenodd"/>
  <path d="m156.68,201.14h19.99s-1.47,3.65-1.56,5.84c-.08,2.02-.12,65.36-.13,75.38,10.72-.16,45.13-.73,47.44-1.3,2.74-.67,10.88-2.49,10.88-2.49l-2.87,11.64h-73.75s2.61-4.03,2.45-7.87c-.17-3.84-.13-76.43-.13-76.43,0,0-.42-3.18-2.32-4.76h0Z" fill="#8c2e47" fill-rule="evenodd"/>
  <path d="m298.32,290.2l5.23-6.99,32.76-72.74s1.26-6.28,0-7.8c-1.27-1.52-1.98-1.52-1.98-1.52h17.37l34.33,75.99s3.58,6.1,5.56,8.46c1.98,2.36,4.26,4.56,4.26,4.56l-23.25.11s2.59-3.06,1.24-5.84c-1.35-2.78-11.56-24.39-11.56-24.39l-32.56-.21s-5.27.04-6.79,2.74c-1.52,2.7-8.06,19.65-8.06,19.65,0,0-1.01,3.71-.59,5.19.42,1.48,2.45,2.84,2.45,2.84h-18.42s0-.02,0-.02h0Zm29.28-39.07l30.78.42-16.02-34.58-14.76,34.16Z" fill="#8c2e47" fill-rule="evenodd"/>
  <path d="m407.85,201.14h63.97l2.02,11.81s-17.04-3.46-26.23-3.63c-9.19-.17-22.18-.08-22.18-.08l.11,32c5.63,0,42.04.98,44.13-1.62l.25,11.13c-1.97-2.08-31.25-.64-36.13-.64-8.08,0-8.21,1.8-8.21,7.11l.06,13.76s.17,10.67.63,13.37c.46,2.7,2.23,5.86,2.23,5.86h-20.92s2.36-5.53,2.02-12.57c-.23-4.86-.23-35.39-.21-53.84h0v-.41c0-8.06.02-13.73.02-13.73h-.02v-3.2c0-.79-.51-4.72-1.55-5.31h0Z" fill="#8c2e47" fill-rule="evenodd"/>
  <path d="m105.91,317.85v18.84h5.96c1.93,0,4.53,0,6.82-1.41,1.16-.72,4.53-3.23,4.53-8.01,0-3.23-1.52-5.88-3.62-7.48-2.51-1.93-5.58-1.93-7.35-1.93h-6.35,0Zm6.08,2.4c1.71,0,2.98,0,4.53.69,2.87,1.27,3.92,3.89,3.92,6.19,0,2.57-1.24,4.86-3.15,6.05-1.6.97-3.81,1.08-5.22,1.08h-3.48v-14h3.4,0Z" fill="#8c2e47" fill-rule="evenodd"/>
  <polygon points="147.28 317.85 136.59 317.85 136.59 336.69 147.53 336.69 147.53 334.26 139.3 334.26 139.3 328.4 147 328.4 147 326 139.3 326 139.3 320.25 147.28 320.25 147.28 317.85" fill="#8c2e47" fill-rule="evenodd"/>
  <polygon points="175.59 317.85 172.91 317.85 167.27 331.08 161.61 317.85 158.9 317.85 167.02 336.8 167.63 336.8 175.59 317.85" fill="#8c2e47" fill-rule="evenodd"/>
  <polygon points="198.34 317.85 187.65 317.85 187.65 336.69 198.59 336.69 198.59 334.26 190.36 334.26 190.36 328.4 198.06 328.4 198.06 326 190.36 326 190.36 320.25 198.34 320.25 198.34 317.85" fill="#8c2e47" fill-rule="evenodd"/>
  <polygon points="214.74 317.85 212.01 317.85 212.01 336.69 223.22 336.69 223.22 334.23 214.74 334.23 214.74 317.85" fill="#8c2e47" fill-rule="evenodd"/>
  <path d="m243.29,317.6c-6.44,0-10.08,4.72-10.08,9.72,0,5.25,4.03,9.61,9.94,9.61s10.3-4.28,10.3-9.69c0-5.05-3.89-9.64-10.16-9.64h0Zm.11,2.54c4.92,0,7.29,3.95,7.29,7.07,0,1.63-.69,3.67-1.88,4.97-1.3,1.41-3.48,2.24-5.5,2.24-3.95,0-7.32-2.82-7.32-7.1,0-3.15,2.13-7.18,7.4-7.18h0Z" fill="#8c2e47" fill-rule="evenodd"/>
  <path d="m266.63,317.85v18.84h2.71v-8.17h1.99c2.93,0,4.42-.39,5.61-1.52,1.41-1.35,1.57-2.87,1.57-3.81,0-1.71-.64-2.9-1.46-3.73-1.57-1.6-3.32-1.6-5.55-1.6h-4.86,0Zm4.75,2.38c1.93,0,2.68,0,3.51.8.66.61.83,1.44.83,2.1,0,1.19-.5,2.04-1.24,2.49-.8.5-1.91.5-2.98.5h-2.15v-5.88h2.04,0Z" fill="#8c2e47" fill-rule="evenodd"/>
  <polygon points="308.35 317.85 305.84 317.85 299.6 325.58 293.33 317.85 290.79 317.85 290.79 336.69 293.5 336.69 293.5 322.02 299.35 329.31 299.85 329.31 305.65 322.02 305.65 336.69 308.35 336.69 308.35 317.85" fill="#8c2e47" fill-rule="evenodd"/>
  <polygon points="333.1 317.85 322.41 317.85 322.41 336.69 333.35 336.69 333.35 334.26 325.11 334.26 325.11 328.4 332.82 328.4 332.82 326 325.11 326 325.11 320.25 333.1 320.25 333.1 317.85" fill="#8c2e47" fill-rule="evenodd"/>
  <polygon points="364.33 317.85 361.76 317.85 361.76 332.46 349.05 317.85 346.87 317.85 346.87 336.69 349.41 336.69 349.41 322.19 362.01 336.69 364.33 336.69 364.33 317.85" fill="#8c2e47" fill-rule="evenodd"/>
  <polygon points="392.49 317.85 376.75 317.85 376.75 320.23 383.22 320.23 383.22 336.69 385.92 336.69 385.92 320.23 392.49 320.23 392.49 317.85" fill="#8c2e47" fill-rule="evenodd"/>
  <path d="m413.98,318.93c-1.3-.86-2.79-1.33-4.34-1.33-3.4,0-5.55,2.15-5.55,5,0,1.19.36,2.07.94,2.82.83,1.05,1.68,1.57,4.67,3.37.88.53,2.49,1.69,2.49,3.26s-1.52,2.49-2.93,2.49c-2.84,0-4.53-2.07-5.08-2.76v3.42c1.46,1.1,3.23,1.74,5.08,1.74,3.34,0,5.47-2.18,5.47-5.14,0-1.35-.44-2.38-1.02-3.12-.72-.97-1.63-1.63-2.43-2.1-3.59-2.1-4.69-2.76-4.69-4.36,0-1.19,1.13-2.18,2.98-2.18,1.27,0,2.82.41,4.42,1.96v-3.07h0Z" fill="#8c2e47" fill-rule="evenodd"/>
</svg>